HIERARCHY
ROOT Hips
{
    OFFSET 0.000000 0.000000 0.000000
    CHANNELS 6 Xposition Yposition Zposition Zrotation Xrotation Yrotation
    JOINT Spine
    {
        OFFSET -0.000000 7.236184 0.000000
        CHANNELS 3 Zrotation Xrotation Yrotation
        JOINT Spine1
        {
            OFFSET -0.000000 20.420147 0.000000
            CHANNELS 3 Zrotation Xrotation Yrotation
            JOINT Neck
            {
                OFFSET -0.000000 20.336288 1.848754
                CHANNELS 3 Zrotation Xrotation Yrotation
                JOINT Head
                {
                    OFFSET -0.000000 12.354461 -1.764923
                    CHANNELS 3 Zrotation Xrotation Yrotation
                    End Site
                    {
                        OFFSET -0.000000 22.061537 0.000000
                    }
                }
            }
            JOINT LeftShoulder
            {
                OFFSET 3.573296 18.396038 -0.314103
                CHANNELS 3 Zrotation Xrotation Yrotation
                JOINT LeftArm
                {
                    OFFSET 10.880760 0.000000 0.000000
                    CHANNELS 3 Zrotation Xrotation Yrotation
                    JOINT LeftForeArm
                    {
                        OFFSET 27.185530 0.000000 0.000000
                        CHANNELS 3 Zrotation Xrotation Yrotation
                        JOINT LeftHand
                        {
                            OFFSET 27.825975 0.000000 0.000000
                            CHANNELS 3 Zrotation Xrotation Yrotation
                            End Site
                            {
                                OFFSET 13.236923 0.000000 0.000000
                            }
                        }
                    }
                }
            }
            JOINT RightShoulder
            {
                OFFSET -3.474926 18.396038 -0.314103
                CHANNELS 3 Zrotation Xrotation Yrotation
                JOINT RightArm
                {
                    OFFSET -10.880760 0.000000 0.000000
                    CHANNELS 3 Zrotation Xrotation Yrotation
                    JOINT RightForeArm
                    {
                        OFFSET -27.185530 0.000000 0.000000
                        CHANNELS 3 Zrotation Xrotation Yrotation
                        JOINT RightHand
                        {
                            OFFSET -27.825975 0.000000 0.000000
                            CHANNELS 3 Zrotation Xrotation Yrotation
                            End Site
                            {
                                OFFSET -13.236923 0.000000 0.000000
                            }
                        }
                    }
                }
            }
        }
    }
    JOINT LeftUpLeg
    {
        OFFSET 8.824615 0.000000 0.000000
        CHANNELS 3 Zrotation Xrotation Yrotation
        JOINT LeftLeg
        {
            OFFSET -0.000000 -35.111282 0.000000
            CHANNELS 3 Zrotation Xrotation Yrotation
            JOINT LeftFoot
            {
                OFFSET -0.000000 -42.324711 0.000000
                CHANNELS 3 Zrotation Xrotation Yrotation
                JOINT LeftToeBase
                {
                    OFFSET -0.000000 -5.735999 13.236923
                    CHANNELS 3 Zrotation Xrotation Yrotation
                    End Site
                    {
                        OFFSET -0.000000 0.000000 3.529846
                    }
                }
            }
        }
    }
    JOINT RightUpLeg
    {
        OFFSET -8.824615 0.000000 0.000000
        CHANNELS 3 Zrotation Xrotation Yrotation
        JOINT RightLeg
        {
            OFFSET -0.000000 -35.111282 0.000000
            CHANNELS 3 Zrotation Xrotation Yrotation
            JOINT RightFoot
            {
                OFFSET -0.000000 -42.324711 0.000000
                CHANNELS 3 Zrotation Xrotation Yrotation
                JOINT RightToeBase
                {
                    OFFSET -0.000000 -5.735999 13.236923
                    CHANNELS 3 Zrotation Xrotation Yrotation
                    End Site
                    {
                        OFFSET -0.000000 0.000000 3.529846
                    }
                }
            }
        }
    }
}
MOTION
Frames:    14
Frame Time:    0.008333
16.249886    82.716225    114.026047    -0.417705    -12.202832    -174.161072    -2.684381    -18.213232    -1.034879    3.322927    5.226909    -0.756332    0.051690    6.879840    1.367015    -5.793322    -4.577191    0.364291    0.336753    16.645754    1.868060    -60.843102    35.364410    -26.329144    1.591796    -8.289355    -13.802704    21.440466    -7.326646    4.113273    6.635264    17.597656    -8.087210    57.275055    29.636862    21.013462    1.146385    -15.516224    5.590088    -12.254713    -14.776196    -7.651649    9.974833    -19.123817    1.190402    -0.015157    17.194109    9.649019    -8.197757    -4.502673    -10.993487    -2.266009    -1.032685    2.516435    -1.225350    -6.254480    -3.254431    3.423567    4.678836    1.305690    -4.112131    -6.890509    -12.805972    -0.934894    -0.305761    1.011583
16.347139    82.716743    114.051498    -0.376080    -12.180862    -173.670334    -2.676671    -18.143919    -0.925000    3.173187    5.226291    -0.642521    -0.065931    6.877471    1.204016    -5.882542    -4.724468    0.181191    0.358148    16.613213    1.948861    -61.175194    34.895771    -25.814669    1.540172    -8.534643    -13.661934    21.483168    -7.588357    4.063763    6.595919    17.450895    -7.963479    57.106071    28.863447    21.181593    1.154623    -15.736139    5.404765    -12.184758    -14.976421    -7.879650    9.899473    -19.675491    1.075401    -0.007324    17.875786    9.853964    -8.033174    -4.392868    -11.148037    -2.225644    -1.177661    2.472268    -1.125229    -6.259715    -3.494202    3.371631    4.759911    0.924524    -4.163767    -6.953705    -12.695138    -0.901681    -0.356106    0.975713
16.441793    82.717354    114.077209    -0.331321    -12.155455    -173.157990    -2.665586    -18.077341    -0.807462    3.011154    5.231832    -0.520953    -0.181842    6.884237    1.031337    -5.964684    -4.866686    -0.010685    0.381337    16.581356    2.031447    -61.505280    34.410847    -25.272146    1.480239    -8.783455    -13.512415    21.514965    -7.853826    4.020370    6.551963    17.287725    -7.831619    56.899265    28.054941    21.375626    1.155400    -15.921886    5.241319    -12.168715    -15.140736    -8.088895    9.814537    -20.242237    0.977379    -0.006727    18.575872    10.080901    -7.846204    -4.275425    -11.295945    -2.176858    -1.330690    2.418760    -1.018643    -6.259611    -3.743784    3.306882    4.834469    0.507959    -4.202885    -7.016124    -12.551678    -0.870939    -0.412743    0.942521
16.532934    82.717873    114.102829    -0.283004    -12.127695    -172.631546    -2.650537    -18.015524    -0.683266    2.839042    5.243239    -0.393271    -0.292970    6.900571    0.852157    -6.040054    -5.001131    -0.208460    0.406138    16.551126    2.116270    -61.829750    33.914417    -24.707455    1.413167    -9.034753    -13.356500    21.539282    -8.121204    3.985637    6.503761    17.108877    -7.693273    56.659779    27.219263    21.590546    1.146796    -16.076794    5.103672    -12.203394    -15.272208    -8.280901    9.723349    -20.815659    0.899881    -0.015993    19.282799    10.332566    -7.637509    -4.152880    -11.434839    -2.120231    -1.490778    2.356540    -0.906542    -6.250767    -4.002413    3.232020    4.894741    0.079914    -4.231510    -7.071614    -12.393558    -0.843576    -0.473628    0.912986
16.621763    82.718132    114.128448    -0.230268    -12.097529    -172.085861    -2.631495    -17.958786    -0.551166    2.655536    5.261057    -0.257371    -0.400675    6.927821    0.664820    -6.108847    -5.129133    -0.413461    0.432469    16.522154    2.205380    -62.153275    33.399784    -24.112087    1.338856    -9.294186    -13.192368    21.560703    -8.395652    3.961181    6.449761    16.910429    -7.545999    56.387524    26.345325    21.826056    1.125445    -16.211020    4.992624    -12.285208    -15.380232    -8.462976    9.626300    -21.400303    0.844118    -0.038290    20.001322    10.617962    -7.403023    -4.024867    -11.565130    -2.055054    -1.659914    2.284818    -0.788778    -6.230382    -4.273870    3.149688    4.937516    -0.345482    -4.252874    -7.116317    -12.238386    -0.820419    -0.539486    0.888005
16.707226    82.718025    114.153381    -0.173902    -12.064794    -171.528336    -2.609460    -17.907948    -0.411234    2.464298    5.284972    -0.115862    -0.502588    6.965919    0.472583    -6.172609    -5.247697    -0.623116    0.459487    16.494854    2.298159    -62.472702    32.872517    -23.490454    1.259130    -9.561725    -13.022244    21.582127    -8.676361    3.949025    6.389770    16.692688    -7.391298    56.088009    25.442410    22.076458    1.088144    -16.332428    4.911536    -12.409256    -15.472506    -8.637402    9.525496    -21.985958    0.812055    -0.076665    20.718983    10.939404    -7.144038    -3.894258    -11.683127    -1.982515    -1.835982    2.204893    -0.668337    -6.196512    -4.554893    3.064317    4.960814    -0.747949    -4.268729    -7.146540    -12.104012    -0.802481    -0.608486    0.868673
16.788969    82.717552    114.177559    -0.116158    -12.031159    -170.960297    -2.586904    -17.864962    -0.266802    2.265570    5.315045    0.035185    -0.598561    7.015921    0.275808    -6.231757    -5.356511    -0.836579    0.487177    16.469759    2.394632    -62.788578    32.332348    -22.840878    1.174968    -9.840530    -12.845965    21.606441    -8.966188    3.949681    6.323214    16.454645    -7.229146    55.763020    24.508902    22.340464    1.032475    -16.450764    4.861384    -12.572222    -15.558386    -8.808304    9.418951    -22.571259    0.803731    -0.134222    21.431736    11.303627    -6.861180    -3.761885    -11.787788    -1.904207    -2.020223    2.118532    -0.550132    -6.150119    -4.844615    2.980689    4.965257    -1.113897    -4.281387    -7.160643    -12.004482    -0.790075    -0.679321    0.855327
16.866945    82.716179    114.199280    -0.053066    -11.988766    -170.386536    -2.559339    -17.823259    -0.114380    2.063656    5.350194    0.190661    -0.688226    7.077519    0.076817    -6.286951    -5.453142    -1.051758    0.514883    16.447525    2.494143    -63.098763    31.784424    -22.166759    1.088174    -10.131150    -12.665065    21.635933    -9.265180    3.964014    6.249194    16.197145    -7.061416    55.417400    23.549711    22.614527    0.958531    -16.572931    4.842685    -12.771220    -15.644620    -8.977516    9.315716    -23.140985    0.823251    -0.213993    22.131098    11.708692    -6.557994    -3.631542    -11.877692    -1.823383    -2.212098    2.029343    -0.429409    -6.082361    -5.137320    2.901503    4.950066    -1.434329    -4.292254    -7.159426    -11.947915    -0.783074    -0.748692    0.847830
16.940325    82.714043    114.219284    0.010365    -11.944310    -169.808884    -2.533205    -17.787859    0.043863    1.860358    5.388359    0.352983    -0.772632    7.151064    -0.123633    -6.338607    -5.536037    -1.268476    0.541865    16.429296    2.596304    -63.403629    31.229530    -21.466463    0.999997    -10.436236    -12.479766    21.672066    -9.575683    3.992399    6.166571    15.920645    -6.889032    55.051872    22.561655    22.899530    0.866958    -16.705244    4.855188    -13.006565    -15.737133    -9.147660    9.209345    -23.699142    0.869996    -0.317652    22.814165    12.164998    -6.236333    -3.504419    -11.955633    -1.742841    -2.412680    1.940437    -0.315031    -6.001804    -5.432696    2.831300    4.919989    -1.704049    -4.302925    -7.146595    -11.938081    -0.781469    -0.813597    0.846168
17.009541    82.710770    114.237083    0.075846    -11.895255    -169.225464    -2.508284    -17.755825    0.209139    1.658597    5.427568    0.522416    -0.853709    7.237587    -0.326711    -6.387536    -5.604785    -1.486592    0.566948    16.416269    2.701385    -63.704273    30.666485    -20.735950    0.911353    -10.759555    -12.288977    21.715889    -9.901163    4.035805    6.072506    15.624849    -6.712174    54.666256    21.538124    23.198008    0.757997    -16.852875    4.899065    -13.281602    -15.840211    -9.322254    9.102431    -24.243589    0.947137    -0.447700    23.481785    12.679976    -5.897841    -3.383372    -12.023530    -1.664721    -2.623433    1.854197    -0.205302    -5.906645    -5.728655    2.771883    4.876966    -1.923496    -4.314489    -7.127494    -11.976629    -0.785324    -0.870203    0.850410
17.073874    82.706215    114.252426    0.143071    -11.842739    -168.642365    -2.486418    -17.727320    0.379768    1.464329    5.464849    0.697717    -0.934352    7.336865    -0.530438    -6.431226    -5.657064    -1.703687    0.588281    16.410162    2.806935    -63.997620    30.101892    -19.980419    0.824334    -11.101086    -12.094266    21.766590    -10.241287    4.094612    5.965396    15.314528    -6.534003    54.264992    20.486794    23.509777    0.633401    -17.017075    4.974686    -13.598376    -15.954512    -9.503107    8.996725    -24.768124    1.056457    -0.604129    24.126150    13.255444    -5.549728    -3.273160    -12.082776    -1.591555    -2.842414    1.773441    -0.101237    -5.801710    -6.020934    2.724021    4.826849    -2.096132    -4.326043    -7.109490    -12.057888    -0.795377    -0.913153    0.861347
17.133068    82.700226    114.264992    0.212039    -11.786492    -168.062866    -2.468810    -17.700891    0.554894    1.282022    5.497416    0.877807    -1.019600    7.449163    -0.734208    -6.464363    -5.692710    -1.917988    0.604872    16.411598    2.910855    -64.282249    29.539999    -19.201891    0.740043    -11.461219    -11.897064    21.821873    -10.596336    4.169170    5.842832    14.993320    -6.356853    53.852501    19.414043    23.834641    0.494166    -17.198082    5.083029    -13.959133    -16.079414    -9.693036    8.893288    -25.267910    1.199112    -0.785578    24.742353    13.893549    -5.199418    -3.177357    -12.136492    -1.524758    -3.067193    1.699738    -0.002435    -5.691463    -6.307189    2.686487    4.776888    -2.231805    -4.336693    -7.099250    -12.172090    -0.811994    -0.936800    0.879371
17.187582    82.692764    114.274574    0.283990    -11.725742    -167.483673    -2.455848    -17.675951    0.735231    1.113827    5.524217    1.063392    -1.117780    7.575274    -0.940051    -6.477794    -5.711513    -2.129092    0.615801    16.420633    3.011528    -64.559685    28.978909    -18.393848    0.658359    -11.843975    -11.697141    21.878796    -10.970250    4.260680    5.701756    14.661757    -6.181374    53.428825    18.316395    24.176353    0.339021    -17.397253    5.227145    -14.370596    -16.214659    -9.897107    8.792497    -25.743946    1.377430    -0.992521    25.332104    14.604356    -4.851758    -3.098037    -12.190305    -1.464404    -3.297184    1.633175    0.094375    -5.582407    -6.590721    2.654159    4.737938    -2.351636    -4.344151    -7.102472    -12.299417    -0.834120    -0.939534    0.903336
17.237106    82.683952    114.280746    0.359063    -11.660251    -166.908844    -2.447708    -17.652315    0.918915    0.962577    5.544866    1.252438    -1.234795    7.713908    -1.147105    -6.462509    -5.713910    -2.333754    0.620703    16.437729    3.107479    -64.827339    28.421303    -17.562233    0.578957    -12.246604    -11.496710    21.933577    -11.360440    4.368944    5.542185    14.323200    -6.009310    52.999172    17.206778    24.532152    0.168274    -17.613722    5.410457    -14.833866    -16.358343    -10.118085    8.695924    -26.190718    1.590294    -1.223163    25.889435    15.386743    -4.516023    -3.038308    -12.247078    -1.411011    -3.527408    1.574323    0.191637    -5.482659    -6.872965    2.621035    4.722502    -2.477003    -4.346191    -7.123307    -12.415221    -0.858136    -0.924221    0.929326
